<svg preserveAspectRatio="none" width="100%" height="100%" overflow="visible" style="display: block;" viewBox="0 0 866.217 1113.88" fill="none" xmlns="http://www.w3.org/2000/svg">
<g id="Group">
<g id="Group_2">
<path id="Vector" d="M419.988 1113.63L431.249 689.375L432.514 1113.88L419.988 1113.63Z" fill="var(--fill-0, #B5B5B5)"/>
<path id="Vector_2" d="M320.387 1094.79L407.364 685.312L332.524 1098.75L320.387 1094.79Z" fill="var(--fill-0, #B5B5B5)"/>
<path id="Vector_3" d="M226.852 1046.9L384.861 674.273L237.955 1054.36L226.852 1046.9Z" fill="var(--fill-0, #B5B5B5)"/>
<path id="Vector_4" d="M144.414 972.538L364.938 656.844L153.89 983.08L144.414 972.538Z" fill="var(--fill-0, #B5B5B5)"/>
<path id="Vector_5" d="M77.5273 875.696L348.673 633.969L84.8547 888.77L77.5273 875.696Z" fill="var(--fill-0, #B5B5B5)"/>
<path id="Vector_6" d="M29.793 761.634L336.949 606.898L34.584 776.529L29.793 761.634Z" fill="var(--fill-0, #B5B5B5)"/>
<path id="Vector_7" d="M3.78906 636.48L330.391 577.078L5.77435 652.399L3.78906 636.48Z" fill="var(--fill-0, #B5B5B5)"/>
<path id="Vector_8" d="M0.920623 506.977L329.358 546.116L0 523.056L0.920623 506.977Z" fill="var(--fill-0, #B5B5B5)"/>
<path id="Vector_9" d="M21.3155 380.109L333.895 515.662L17.5391 395.48L21.3155 380.109Z" fill="var(--fill-0, #B5B5B5)"/>
<path id="Vector_10" d="M63.9162 262.711L343.773 487.383L57.4844 276.55L63.9162 262.711Z" fill="var(--fill-0, #B5B5B5)"/>
<path id="Vector_11" d="M126.393 161.125L358.446 462.811L117.656 172.683L126.393 161.125Z" fill="var(--fill-0, #B5B5B5)"/>
<path id="Vector_12" d="M205.388 80.8281L377.131 443.246L194.816 89.4765L205.388 80.8281Z" fill="var(--fill-0, #B5B5B5)"/>
<path id="Vector_13" d="M296.643 26.1406L398.813 429.761L284.812 31.4199L296.643 26.1406Z" fill="var(--fill-0, #B5B5B5)"/>
<path id="Vector_14" d="M395.246 0L422.338 423.069L382.789 1.62812L395.246 0Z" fill="var(--fill-0, #B5B5B5)"/>
<path id="Vector_15" d="M495.875 3.83072L446.418 423.539L483.456 1.71094L495.875 3.83072Z" fill="var(--fill-0, #B5B5B5)"/>
<path id="Vector_16" d="M593.099 37.4187L469.773 431.134L581.394 31.6719L593.099 37.4187Z" fill="var(--fill-0, #B5B5B5)"/>
<path id="Vector_17" d="M681.681 98.9657L491.125 445.465L671.323 89.9062L681.681 98.9657Z" fill="var(--fill-0, #B5B5B5)"/>
<path id="Vector_18" d="M756.854 185.154L509.344 465.763L748.393 173.266L756.854 185.154Z" fill="var(--fill-0, #B5B5B5)"/>
<path id="Vector_19" d="M814.555 291.307L523.438 490.889L808.455 277.227L814.555 291.307Z" fill="var(--fill-0, #B5B5B5)"/>
<path id="Vector_20" d="M851.669 411.75L532.633 519.544L848.256 396.234L851.669 411.75Z" fill="var(--fill-0, #B5B5B5)"/>
<path id="Vector_21" d="M866.217 539.948L536.465 550.152L865.678 523.844L866.217 539.948Z" fill="var(--fill-0, #B5B5B5)"/>
<path id="Vector_22" d="M857.389 669.013L534.695 581.07L859.75 653.183L857.389 669.013Z" fill="var(--fill-0, #B5B5B5)"/>
<path id="Vector_23" d="M825.672 791.967L527.434 610.625L830.807 777.257L825.672 791.967Z" fill="var(--fill-0, #B5B5B5)"/>
<path id="Vector_24" d="M772.781 902.199L515.082 637.227L780.416 889.416L772.781 902.199Z" fill="var(--fill-0, #B5B5B5)"/>
<path id="Vector_25" d="M701.557 993.766L498.281 659.453L711.277 983.594L701.557 993.766Z" fill="var(--fill-0, #B5B5B5)"/>
<path id="Vector_26" d="M615.856 1061.74L477.969 676.102L627.135 1054.72L615.856 1061.74Z" fill="var(--fill-0, #B5B5B5)"/>
<path id="Vector_27" d="M520.277 1102.42L455.207 686.258L532.508 1098.95L520.277 1102.42Z" fill="var(--fill-0, #B5B5B5)"/>
</g>
<g id="Group_3">
<path id="Vector_28" d="M417.188 1011.08L432.844 649.234L448.501 1011.08H417.188Z" fill="var(--fill-0, #CECECE)"/>
<path id="Vector_29" d="M266.254 957.54L402.35 640.266L294.468 975.022L266.254 957.54Z" fill="var(--fill-0, #CECECE)"/>
<path id="Vector_30" d="M148.309 825.03L377.888 615.18L167.83 856.536L148.309 825.03Z" fill="var(--fill-0, #CECECE)"/>
<path id="Vector_31" d="M86.7227 639.768L364.319 578.898L93.6868 679.06L86.7227 639.768Z" fill="var(--fill-0, #CECECE)"/>
<path id="Vector_32" d="M93.6868 438.492L364.319 538.654L86.7227 477.777L93.6868 438.492Z" fill="var(--fill-0, #CECECE)"/>
<path id="Vector_33" d="M167.83 261L377.888 502.357L148.309 292.507L167.83 261Z" fill="var(--fill-0, #CECECE)"/>
<path id="Vector_34" d="M294.468 142.5L402.35 477.256L266.254 159.99L294.468 142.5Z" fill="var(--fill-0, #CECECE)"/>
<path id="Vector_35" d="M448.501 106.469L432.844 468.314L417.188 106.469H448.501Z" fill="var(--fill-0, #CECECE)"/>
<path id="Vector_36" d="M599.442 159.99L463.34 477.256L571.228 142.5L599.442 159.99Z" fill="var(--fill-0, #CECECE)"/>
<path id="Vector_37" d="M717.38 292.507L487.801 502.357L697.853 261L717.38 292.507Z" fill="var(--fill-0, #CECECE)"/>
<path id="Vector_38" d="M778.967 477.777L501.371 538.654L771.997 438.492L778.967 477.777Z" fill="var(--fill-0, #CECECE)"/>
<path id="Vector_39" d="M771.997 679.06L501.371 578.898L778.967 639.768L771.997 679.06Z" fill="var(--fill-0, #CECECE)"/>
<path id="Vector_40" d="M697.853 856.544L487.801 615.18L717.38 825.03L697.853 856.544Z" fill="var(--fill-0, #CECECE)"/>
<path id="Vector_41" d="M571.228 975.022L463.34 640.266L599.442 957.54L571.228 975.022Z" fill="var(--fill-0, #CECECE)"/>
</g>
<g id="Vector_42">
</g>
</g>
</svg>
